<svg width="24" height="20" viewBox="0 0 24 20" fill="none" xmlns="http://www.w3.org/2000/svg">
<path fill-rule="evenodd" clip-rule="evenodd" d="M5.09073 7.27273C5.86227 7.27273 6.60221 6.96623 7.14777 6.42067C7.69333 5.87511 7.99982 5.13518 7.99982 4.36364C7.99982 3.5921 7.69333 2.85216 7.14777 2.3066C6.60221 1.76104 5.86227 1.45455 5.09073 1.45455C4.31919 1.45455 3.57925 1.76104 3.03369 2.3066C2.48813 2.85216 2.18164 3.5921 2.18164 4.36364C2.18164 5.13518 2.48813 5.87511 3.03369 6.42067C3.57925 6.96623 4.31919 7.27273 5.09073 7.27273ZM5.09073 8.72727C5.66377 8.72727 6.2312 8.6144 6.76062 8.39511C7.29004 8.17582 7.77109 7.85439 8.17629 7.44919C8.58149 7.04399 8.90291 6.56295 9.12221 6.03353C9.3415 5.50411 9.45437 4.93668 9.45437 4.36364C9.45437 3.7906 9.3415 3.22317 9.12221 2.69375C8.90291 2.16432 8.58149 1.68328 8.17629 1.27808C7.77109 0.872879 7.29004 0.551456 6.76062 0.332162C6.2312 0.112869 5.66377 -8.53897e-09 5.09073 0C3.93342 1.72452e-08 2.82352 0.459739 2.00517 1.27808C1.18683 2.09642 0.727095 3.20633 0.727095 4.36364C0.727095 5.52094 1.18683 6.63085 2.00517 7.44919C2.82352 8.26753 3.93342 8.72727 5.09073 8.72727Z" fill="white"/>
<path fill-rule="evenodd" clip-rule="evenodd" d="M3.424 7.12142C3.49173 7.18898 3.54546 7.26923 3.58213 7.35759C3.61879 7.44594 3.63766 7.54067 3.63766 7.63633C3.63766 7.73199 3.61879 7.82671 3.58213 7.91507C3.54546 8.00342 3.49173 8.08368 3.424 8.15124L2.93236 8.64142C1.98623 9.58781 1.45467 10.8712 1.45455 12.2094V14.9091C1.45455 15.1019 1.37792 15.2869 1.24153 15.4233C1.10514 15.5597 0.920157 15.6363 0.727273 15.6363C0.534388 15.6363 0.349403 15.5597 0.213013 15.4233C0.0766231 15.2869 0 15.1019 0 14.9091V12.2094C0.000206195 10.4855 0.68507 8.83216 1.904 7.61306L2.39418 7.12142C2.46174 7.05369 2.54199 6.99996 2.63035 6.96329C2.71871 6.92663 2.81343 6.90775 2.90909 6.90775C3.00475 6.90775 3.09947 6.92663 3.18783 6.96329C3.27619 6.99996 3.35644 7.05369 3.424 7.12142ZM20.576 6.68505C20.5083 6.75261 20.4545 6.83287 20.4179 6.92122C20.3812 7.00958 20.3623 7.1043 20.3623 7.19996C20.3623 7.29563 20.3812 7.39035 20.4179 7.4787C20.4545 7.56706 20.5083 7.64732 20.576 7.71487L21.0676 8.20505C21.5362 8.67362 21.9078 9.22988 22.1614 9.84208C22.415 10.4543 22.5455 11.1104 22.5455 11.7731V14.9091C22.5455 15.1019 22.6221 15.2869 22.7585 15.4233C22.8949 15.5597 23.0798 15.6363 23.2727 15.6363C23.4656 15.6363 23.6506 15.5597 23.787 15.4233C23.9234 15.2869 24 15.1019 24 14.9091V11.7731C23.9998 10.0491 23.3149 8.3958 22.096 7.17669L21.6058 6.68505C21.5383 6.61733 21.458 6.56359 21.3696 6.52693C21.2813 6.49026 21.1866 6.47139 21.0909 6.47139C20.9952 6.47139 20.9005 6.49026 20.8122 6.52693C20.7238 6.56359 20.6436 6.61733 20.576 6.68505Z" fill="white"/>
<path fill-rule="evenodd" clip-rule="evenodd" d="M18.182 7.27273C17.4105 7.27273 16.6705 6.96623 16.125 6.42067C15.5794 5.87511 15.2729 5.13517 15.2729 4.36364C15.2729 3.5921 15.5794 2.85216 16.125 2.3066C16.6705 1.76104 17.4105 1.45455 18.182 1.45455C18.9535 1.45455 19.6935 1.76104 20.239 2.3066C20.7846 2.85216 21.0911 3.5921 21.0911 4.36364C21.0911 5.13517 20.7846 5.87511 20.239 6.42067C19.6935 6.96623 18.9535 7.27273 18.182 7.27273ZM18.182 8.72727C17.609 8.72727 17.0415 8.6144 16.5121 8.39511C15.9827 8.17582 15.5016 7.85439 15.0964 7.44919C14.6912 7.04399 14.3698 6.56295 14.1505 6.03353C13.9312 5.50411 13.8184 4.93668 13.8184 4.36364C13.8184 3.7906 13.9312 3.22317 14.1505 2.69374C14.3698 2.16432 14.6912 1.68328 15.0964 1.27808C15.5016 0.872879 15.9827 0.551456 16.5121 0.332162C17.0415 0.112869 17.609 -8.53897e-09 18.182 0C19.3393 1.72452e-08 20.4492 0.459739 21.2676 1.27808C22.0859 2.09642 22.5456 3.20633 22.5456 4.36364C22.5456 5.52094 22.0859 6.63085 21.2676 7.44919C20.4492 8.26753 19.3393 8.72727 18.182 8.72727ZM11.6365 13.4545C10.6721 13.4545 9.74719 13.8377 9.06524 14.5196C8.38329 15.2016 8.00018 16.1265 8.00018 17.0909V18.9818C8.00018 19.1747 7.92355 19.3597 7.78716 19.4961C7.65077 19.6325 7.46579 19.7091 7.2729 19.7091C7.08002 19.7091 6.89504 19.6325 6.75865 19.4961C6.62226 19.3597 6.54563 19.1747 6.54563 18.9818V17.0909C6.54563 15.7407 7.08199 14.4458 8.03673 13.4911C8.99146 12.5364 10.2863 12 11.6365 12C12.9867 12 14.2816 12.5364 15.2364 13.4911C16.1911 14.4458 16.7275 15.7407 16.7275 17.0909V18.9818C16.7275 19.1747 16.6508 19.3597 16.5144 19.4961C16.378 19.6325 16.1931 19.7091 16.0002 19.7091C15.8073 19.7091 15.6223 19.6325 15.4859 19.4961C15.3495 19.3597 15.2729 19.1747 15.2729 18.9818V17.0909C15.2729 16.6134 15.1788 16.1405 14.9961 15.6993C14.8134 15.2581 14.5455 14.8573 14.2078 14.5196C13.8702 14.1819 13.4693 13.9141 13.0281 13.7313C12.5869 13.5486 12.1141 13.4545 11.6365 13.4545Z" fill="white"/>
<path fill-rule="evenodd" clip-rule="evenodd" d="M11.6364 11.2727C12.4079 11.2727 13.1478 10.9663 13.6934 10.4207C14.239 9.87514 14.5455 9.1352 14.5455 8.36366C14.5455 7.59212 14.239 6.85218 13.6934 6.30662C13.1478 5.76106 12.4079 5.45457 11.6364 5.45457C10.8648 5.45457 10.1249 5.76106 9.57933 6.30662C9.03377 6.85218 8.72727 7.59212 8.72727 8.36366C8.72727 9.1352 9.03377 9.87514 9.57933 10.4207C10.1249 10.9663 10.8648 11.2727 11.6364 11.2727ZM11.6364 12.7273C12.7937 12.7273 13.9036 12.2676 14.7219 11.4492C15.5403 10.6309 16 9.52097 16 8.36366C16 7.20635 15.5403 6.09644 14.7219 5.2781C13.9036 4.45976 12.7937 4.00002 11.6364 4.00002C10.4791 4.00002 9.36915 4.45976 8.55081 5.2781C7.73247 6.09644 7.27273 7.20635 7.27273 8.36366C7.27273 9.52097 7.73247 10.6309 8.55081 11.4492C9.36915 12.2676 10.4791 12.7273 11.6364 12.7273Z" fill="white"/>
</svg>
