<svg width="24" height="19" viewBox="0 0 24 19" fill="none" xmlns="http://www.w3.org/2000/svg">
<path d="M21.2687 0.299194C21.0121 0.133197 20.7186 0.0327723 20.4141 0.0067473C20.1096 -0.0192777 19.8034 0.0298943 19.5224 0.149941L10.3134 3.77681C10.0954 3.86554 9.86225 3.91116 9.62687 3.91113H3.73134C3.23654 3.91113 2.762 4.1077 2.41211 4.45758C2.06223 4.80746 1.86567 5.282 1.86567 5.77681V5.92606H0V10.4037H1.86567V10.5977C1.87736 11.0847 2.07907 11.5478 2.4277 11.8881C2.77632 12.2283 3.2442 12.4187 3.73134 12.4186L5.97015 17.1649C6.12175 17.4845 6.36042 17.7549 6.65875 17.9449C6.95708 18.135 7.30298 18.2371 7.65672 18.2395H8.59702C9.08923 18.2356 9.55995 18.0373 9.90661 17.6878C10.2533 17.3383 10.4478 16.8661 10.4478 16.3738V12.5977L19.5224 16.2246C19.7456 16.3134 19.9837 16.359 20.2239 16.3589C20.5966 16.3529 20.9595 16.2388 21.2687 16.0305C21.5141 15.8648 21.7166 15.643 21.8594 15.3834C22.0021 15.1239 22.081 14.8341 22.0896 14.538V1.83651C22.0882 1.5328 22.0127 1.23402 21.8696 0.96611C21.7266 0.698202 21.5203 0.469269 21.2687 0.299194ZM8.58209 5.77681V10.5977H3.73134V5.77681H8.58209ZM8.58209 16.3738H7.64179L5.80597 12.4186H8.58209V16.3738ZM11 10.8216C10.8228 10.731 10.638 10.6561 10.4478 10.5977V5.67233C10.6362 5.63345 10.8209 5.57853 11 5.50815L20.2239 1.83651V14.4932L11 10.8216ZM22.1343 6.29919V10.0305C22.6291 10.0305 23.1037 9.83398 23.4536 9.4841C23.8034 9.13421 24 8.65967 24 8.16487C24 7.67006 23.8034 7.19552 23.4536 6.84564C23.1037 6.49576 22.6291 6.29919 22.1343 6.29919Z" fill="white"/>
</svg>
